PathFileType	4	(X/Y/Z)	17_1_41_p0_0-536_filt_butterworth.trc
DataRate	CameraRate	NumFrames	NumMarkers	Units	OrigDataRate	OrigDataStartFrame	OrigNumFrames
59.0	59.0	7	27	m	59.0	335	536
Frame#	Time	RHip			RKnee			RAnkle			RBigToe			RSmallToe			RHeel			LHip			LKnee			LAnkle			LBigToe			LSmallToe			LHeel			Neck			Head			Nose			RShoulder			RElbow			RWrist			RThumb			RIndex			RPinky			LShoulder			LElbow			LWrist			LThumb			LIndex			LPinky			
		X1	Y1	Z1	X2	Y2	Z2	X3	Y3	Z3	X4	Y4	Z4	X5	Y5	Z5	X6	Y6	Z6	X7	Y7	Z7	X8	Y8	Z8	X9	Y9	Z9	X10	Y10	Z10	X11	Y11	Z11	X12	Y12	Z12	X13	Y13	Z13	X14	Y14	Z14	X15	Y15	Z15	X16	Y16	Z16	X17	Y17	Z17	X18	Y18	Z18	X19	Y19	Z19	X20	Y20	Z20	X21	Y21	Z21	X22	Y22	Z22	X23	Y23	Z23	X24	Y24	Z24	X25	Y25	Z25	X26	Y26	Z26	X27	Y27	Z27	
335	5.677966101694915	0.2341631901967415	0.5672006651765901	0.8992784032210193	0.2302775131242429	0.5714690551249344	1.290245310713719	0.2167506319801373	0.6784993937257994	1.6974179089547272	0.2606246176001652	0.5261601748016339	1.7313939133716973	0.31516541893203986	0.5931249603716795	1.7493414654996682	0.18943704268703437	0.7045658321379827	1.7420143495179277	0.047094162195249346	0.5155040732605956	0.8718002827290015	0.04124082203641332	0.5683774332447915	1.287443802385012	0.04174961738913225	0.6505943483555915	1.712705899394952	0.08108881374921002	0.45610136722713623	1.7121414188489283	0.0073987596943238775	0.5063692008286331	1.7272954399800158	0.05423672992050506	0.6902200120317024	1.7457825496922619	0.2616684767333813	0.32348331614898895	0.36014017169054185	0.33354061737806884	0.20807040284987488	0.12720447873945814	0.3637811812719507	0.17422192342820592	0.25759647806258645	0.38155919543888517	0.4426560638814442	0.451093086843308	0.35748094392788665	0.6207121918190538	0.7077208206572884	0.35727613225603566	0.6132673020011605	0.9182677545977249	0.30110914695437857	0.5719281972831185	1.0201573472199386	0.3083379022452024	0.5746055343295872	1.0393345696866074	0.2966673719184369	0.6316445374836799	1.048281942345015	0.09380184946353692	0.26548380189168463	0.41363954601956954	-0.023911230970287977	0.4227483563287919	0.6346837920233321	-0.07172393930753314	0.5236141699207971	0.8496366845216469	-0.03185816209220014	0.4814142549410677	0.93864333138644	-0.0741982917841207	0.5374762507018116	0.976422677501081	-0.08542978552133043	0.5319016323030301	0.9611489843655021
336	5.694915254237288	0.23223558561114008	0.5721209405911457	0.9005162289578473	0.230189723745655	0.571572748436922	1.290200186284507	0.21562552723088785	0.6807441831081777	1.699141288291912	0.2611478448974943	0.5205701324855241	1.7273794336637918	0.31587188350392753	0.5935309697621086	1.7497661427952973	0.18749626514450315	0.7103373511439076	1.744006456761426	0.0464313873483486	0.515441255198422	0.8717720488288625	0.041279386168234775	0.5685639793120358	1.2884551260423152	0.04175515854168007	0.6505410631525175	1.7127885278088937	0.08094259821404186	0.45710961044962706	1.7128587608306893	0.010955979444655201	0.5019545799933973	1.7246028245680447	0.052430869661608745	0.6948044301151787	1.7483172958024993	0.2627964022294336	0.3242142500003574	0.36171696271687714	0.3355870657828953	0.20332662555474268	0.12798918480188826	0.36647399310366074	0.17224630236988595	0.25759642077458705	0.3835680501681497	0.44256270717900004	0.4504469008111974	0.35753888748308765	0.6205510948831945	0.7069630550974209	0.3569412991468705	0.6133651527007886	0.9215679568059288	0.30125232196882396	0.5720484335273952	1.0209650509343435	0.30833973181191027	0.5742803171175351	1.0394748245648513	0.2983992195813831	0.6264810579310783	1.0470055375347156	0.09520359751093514	0.26134003132329364	0.41372166305594493	-0.021434090295643787	0.41846133814303726	0.6348556371926141	-0.07168422000661083	0.5237937960114616	0.8500899758442814	-0.031925196065985866	0.4816284457768979	0.9393448136714377	-0.07421495735225778	0.5377691028841876	0.9774302098132555	-0.0853929342203385	0.532055224265108	0.9624073256500032
337	5.711864406779661	0.23077253572682407	0.5758193197282258	0.901448508277104	0.23012163392461324	0.571870060834673	1.2901531046651056	0.21510322538211182	0.6808146189248929	1.6991201847245796	0.26147700107731037	0.5164433534854063	1.7240157270365308	0.3163627449141922	0.5916115696409773	1.748902690227265	0.18577140666271474	0.7150283196482545	1.7468175915497666	0.04649609052199905	0.5154001829373359	0.871659007279302	0.04139555869298602	0.5696962452992955	1.2880978787569888	0.04176186837601933	0.6504880313209579	1.7128313655702856	0.08073313651240382	0.45636845340050436	1.7125699238099457	0.012883459281077552	0.49828027001688924	1.7224977690817185	0.051724359728487074	0.6963836929507732	1.749221863737663	0.26327621274667856	0.32472068729390563	0.3627028027698145	0.3357618803755455	0.20006969874164585	0.12918205272805272	0.3678025628660577	0.17160380729127656	0.2577656422490826	0.3860443410511648	0.44211642333662116	0.45011247490757866	0.3576333934181834	0.6204643939777353	0.7067821296596581	0.3561577159694067	0.6149172566981159	0.9240447448038535	0.3012949860248083	0.5722804478801788	1.0216735582711383	0.30751990172927035	0.5763018382585121	1.0403041362811944	0.2993137488724391	0.6223325377060666	1.046121772890056	0.09580009392988256	0.25964410129195475	0.4138886302754933	-0.01964355454888414	0.41514666049517024	0.634783510550984	-0.07167914474860691	0.5237837251032852	0.8500418248790935	-0.032672958157237184	0.4834706485304635	0.9404615460426311	-0.07416165433458255	0.5386778661153463	0.9792657556992954	-0.08539058446949016	0.532383500313286	0.9637107509124878
338	5.728813559322034	0.2301999256237752	0.5772126589315665	0.9017893860751447	0.23009348215738573	0.5721531572032382	1.29012174992268	0.21483732413992285	0.6788627770604875	1.698081756271223	0.2616938300341148	0.5146996371410153	1.722524401633903	0.3163158245114841	0.5886797793943586	1.7473938754503935	0.1845282239832735	0.7172915157209069	1.7492777425310102	0.04662718974260773	0.5153735343085408	0.8716080545295601	0.04155402547726004	0.5719283508161238	1.2872051029293907	0.041766246387502336	0.6504522589787844	1.712815862946951	0.08058561770954263	0.4553916732856167	1.7121634923983786	0.012624965716936325	0.49640715684350234	1.7215723094654014	0.05245024262184658	0.6948277007979684	1.7483806205320445	0.26332920588729825	0.32489996698779966	0.3630362891809481	0.33504690149401084	0.1986707418950498	0.13054326705093633	0.3680609002896045	0.17167419970231826	0.2584296847538935	0.38760453974679465	0.440644123627355	0.450350219527353	0.3577151941095757	0.6204782386273865	0.7071390459286018	0.3549589064982359	0.6187137579217318	0.9242323912748152	0.30127303304064024	0.5719690254232516	1.021948899128218	0.30688557996689386	0.5779499533128211	1.0408625790704038	0.2995348362342688	0.6211310571546802	1.0458120613261195	0.0963453260789964	0.25927030576863563	0.414529763203827	-0.01899443561093214	0.4138464392867682	0.6347082011366083	-0.07168869771305954	0.5237274465291369	0.8498878831976491	-0.03446988700176558	0.48745932087084115	0.9422705154792632	-0.07401183900386786	0.5401035092616622	0.9820535986854396	-0.08541194245774186	0.5327640113848154	0.9646957221560264
339	5.745762711864407	0.2301920184772211	0.5771427078496532	0.9017528158371398	0.2300870934057332	0.5722979463136992	1.2901137442912562	0.21461553567796388	0.6746506899723733	1.6967896795920696	0.2616958210869041	0.5147645365188765	1.72251866213439	0.31559761354590904	0.5855448299103698	1.7456746565150876	0.1841375680759205	0.7177719580529935	1.7501434777233031	0.04658703459231085	0.5153753731348769	0.8719132717289346	0.041622597446141815	0.5744572698579533	1.2866183715149186	0.04176441102788807	0.6504188112119456	1.7127442462463895	0.08053105332652802	0.4549072647605512	1.7119764445065107	0.011540445836516672	0.4959329091671797	1.7214488178495448	0.05452651129922643	0.6903969091504911	1.7459760250606946	0.2634210632574668	0.3245386689160772	0.3630025457222208	0.33490346209924515	0.1986981644120851	0.132147926433419	0.3679210602001542	0.17181365092247117	0.25935217824485474	0.38761190303904947	0.4375411470912078	0.45076004933313774	0.35775801817232433	0.6206386937710195	0.70799914735588	0.3539670886027865	0.6235654607794283	0.9225438562519738	0.30123547701505904	0.5711218379906022	1.0217731746123964	0.30669864780254635	0.578463937242828	1.0409567781265612	0.2990818379321034	0.624277221622313	1.0459147181197395	0.09677274643170716	0.2592639965945166	0.41552706425106856	-0.01902488880594059	0.413838761791295	0.6347231229403287	-0.07169832710195533	0.5237402640850837	0.849932722630198	-0.03676548998276909	0.4922801254766016	0.9436840033271742	-0.07380435061951736	0.5414426550849116	0.9847516331547701	-0.08543672752770236	0.5330371672213421	0.9651096912374695
340	5.762711864406779	0.23030713691109905	0.5767178468499508	0.9017183303442576	0.2300841073845587	0.5723343659237877	1.2901284837809026	0.21432006382968866	0.6693235250004028	1.6954487132302853	0.2610517366983042	0.5166717145304465	1.7236880688662521	0.3146149871978198	0.583165731168166	1.744281162046412	0.1848240334586011	0.7171372033582288	1.749358673294458	0.04646164862409423	0.5153850993166293	0.8727517038635254	0.0415699116430288	0.5768692457727299	1.286329601523145	0.04175773874246128	0.6503925409062958	1.7126531297079874	0.08052370110940678	0.45484763827018077	1.711957969456535	0.010828833557012469	0.49605240212275653	1.7215682567353892	0.05713185600967472	0.6846946253339153	1.7429212783202954	0.26392220732264476	0.32324730158867093	0.3628555146030004	0.33624146973861607	0.1993496202464128	0.1340766497721526	0.36788563607635727	0.17186613903599124	0.2600250304945247	0.3867180512413171	0.4335045008167205	0.4509002098614211	0.3577262060145096	0.620934099614531	0.7091277650713912	0.35387275139337526	0.6269845907032557	0.9205678319127975	0.30121209020233164	0.5704308086409515	1.0209303165068933	0.306742178583093	0.5783840132390723	1.0408113867522304	0.2976738596942299	0.6323472754447825	1.0462502229133235	0.09700217414185139	0.25918152027011393	0.4163038185751894	-0.019190240977933388	0.41411597043752074	0.634726279555974	-0.07168828533937355	0.5240046569581325	0.8504925858459413	-0.03848790927799339	0.4958092921018168	0.9438312890059217	-0.07375350566094939	0.54211489772744	0.9863300736638554	-0.08545595690404226	0.533124696420867	0.9651687577468578
341	5.779661016949152	0.23037661970539752	0.5763872824310234	0.9020776791796395	0.23008388856573547	0.572314160118034	1.2901495127129607	0.2140088085655958	0.6651947203454803	1.694318429457938	0.25938958899121717	0.5209112556408029	1.7261153294229203	0.3146036789250232	0.5823326277362679	1.7436660868719984	0.18656571663925692	0.7148858509834355	1.7479049673170266	0.04640165971310662	0.5153685976738761	0.873837348108027	0.04156509985500963	0.579570139668009	1.2863908170081602	0.04175147699690468	0.650393767681585	1.7125948372533473	0.08052160384803697	0.45490990795238023	1.7119856771314566	0.010639672777026973	0.49624703253825064	1.7216498762281656	0.059013609786014797	0.680410793065253	1.7406715399023645	0.2647487980568347	0.32130631585955993	0.3627033167772202	0.33899332128617443	0.19984979580852139	0.13586229920109597	0.3682825433491942	0.17195610643939513	0.2603301414161421	0.38591648345285473	0.4303391350239913	0.4508161093170189	0.35756482571155473	0.620946505110099	0.7099856668008901	0.3543902239643274	0.6279795247682516	0.9191715998919614	0.3012595351615135	0.5703541230920611	1.0191114735440066	0.3067903942450786	0.5781830163099085	1.0406330695706092	0.2954042143527582	0.6426544504619551	1.0466645528183665	0.09708842603323205	0.25901025768520397	0.41655213866806484	-0.019268142640469603	0.4142578154640264	0.6346592032659069	-0.07161993040271887	0.5246694485535175	0.8516587238497821	-0.039399549534213894	0.497681126816142	0.9437643091754044	-0.07421334654130365	0.5420265336026705	0.9867983588372768	-0.0854767083069317	0.5331564113203799	0.9652822528769363
